<svg width="72" height="72" viewBox="0 0 72 72" fill="none" xmlns="http://www.w3.org/2000/svg">
<path d="M66.5 24.852C66.5 24.852 64.594 39.148 55.063 39.148H16.938C7.406 39.148 5.5 24.852 5.5 24.852C5.5 24.852 9.313 27.71 36 27.71C62.687 27.71 66.5 24.85 66.5 24.85" fill="#61B2E4"/>
<path d="M66.5 24.852C66.5 24.852 64.594 39.148 55.063 39.148H16.938C7.406 39.148 5.5 24.852 5.5 24.852C5.5 24.852 9.313 27.71 36 27.71C62.687 27.71 66.5 24.85 66.5 24.85" stroke="#61B2E4" stroke-width="2" stroke-linecap="round" stroke-linejoin="round"/>
<path d="M40.484 18.304L44.815 20.804L42.083 21.537L29.583 43.187L30.315 45.919L24.815 55.446L19.618 52.446L25.118 42.919L27.85 42.187L40.35 20.537L40.484 18.304Z" fill="#A57939"/>
<path d="M40.35 20.537L40.484 18.305L43.949 20.305M41.083 23.269L29.583 43.187L30.315 45.919L24.815 55.446L19.618 52.446L25.118 42.919L26.484 42.553M35.45 39.148H55.062C64.594 39.148 66.5 24.852 66.5 24.852C66.5 24.852 63.271 27.261 42.086 27.655M33.858 27.704C9.113 27.555 5.5 24.852 5.5 24.852C5.5 24.852 7.406 39.148 16.938 39.148H27.25" stroke="black" stroke-width="2" stroke-linecap="round" stroke-linejoin="round"/>
</svg>
